<svg width="9" height="13" viewBox="0 0 9 13" fill="none" xmlns="http://www.w3.org/2000/svg">
<path d="M0.888338 7.00726L6.6735 12.7923C6.80731 12.9262 6.98592 13 7.17638 13C7.36683 13 7.54545 12.9262 7.67925 12.7923L8.10529 12.3664C8.38251 12.0888 8.38251 11.6378 8.10529 11.3606L3.24734 6.5027L8.11068 1.63936C8.24448 1.50545 8.31836 1.32694 8.31836 1.13659C8.31836 0.946034 8.24448 0.767523 8.11068 0.633508L7.68464 0.207682C7.55073 0.0737725 7.37222 1.07433e-06 7.18177 1.05768e-06C6.99131 1.04103e-06 6.8127 0.0737724 6.67889 0.207682L0.888338 5.99802C0.754217 6.13236 0.680551 6.31171 0.680974 6.50238C0.680551 6.69378 0.754217 6.87303 0.888338 7.00726Z" fill="black"/>
</svg>
